<svg width="109" height="110" viewBox="0 0 109 110" fill="none" xmlns="http://www.w3.org/2000/svg">
<path d="M54.1866 15.6409V15.9295H31.374V15.6409L32.8912 9.66663H52.6694L54.1866 15.6409Z" fill="#EDE9FE"/>
<path d="M9.06641 15.6409H76.496V100.333H9.06641V15.6409Z" fill="#4C1D95"/>
<path d="M15.1592 21.5605H70.3947V94.4254H15.1592V21.5605Z" fill="#C4B5FD"/>
<path d="M70.3947 21.5605V89.9603H31.8345C30.5849 89.9603 29.3475 89.7217 28.1931 89.2581C27.0387 88.7946 25.9899 88.1152 25.1066 87.2587C24.2232 86.4022 23.5227 85.3854 23.0451 84.2665C22.5674 83.1476 22.322 81.9485 22.3228 80.7376V21.5605H70.3947Z" fill="#A78BFA"/>
<path d="M22.6931 28.7087C22.2462 28.7087 21.8176 28.8806 21.5014 29.1866C21.1853 29.4926 21.0074 29.9077 21.0068 30.3407V38.6977C21.0074 39.1307 21.1853 39.5458 21.5014 39.8518C21.8176 40.1578 22.2462 40.3297 22.6931 40.3297H31.3175C31.7641 40.3297 32.1925 40.1577 32.5084 39.8517C32.8242 39.5456 33.0017 39.1305 33.0017 38.6977V30.485C33.0017 30.2516 32.9542 30.0205 32.862 29.8048C32.7697 29.5892 32.6345 29.3933 32.4641 29.2283C32.2936 29.0633 32.0913 28.9325 31.8687 28.8434C31.646 28.7542 31.4074 28.7085 31.1665 28.7087H22.6931ZM22.6931 51.9389C22.2459 51.9389 21.817 52.1111 21.5007 52.4175C21.1845 52.7239 21.0068 53.1395 21.0068 53.5729V61.9298C21.0074 62.3628 21.1853 62.7779 21.5014 63.0839C21.8176 63.3899 22.2462 63.5618 22.6931 63.5618H31.3175C31.7641 63.5618 32.1925 63.3899 32.5084 63.0838C32.8242 62.7777 33.0017 62.3626 33.0017 61.9298V53.7171C33.0017 53.2455 32.8083 52.7932 32.4642 52.4597C32.12 52.1263 31.6533 51.9389 31.1665 51.9389H22.6931ZM22.6931 74.8337C22.4717 74.8335 22.2525 74.8755 22.0479 74.9574C21.8434 75.0393 21.6575 75.1595 21.5008 75.311C21.3442 75.4626 21.22 75.6426 21.1352 75.8407C21.0505 76.0388 21.0068 76.2512 21.0068 76.4657V84.8324C21.0074 85.2654 21.1853 85.6805 21.5014 85.9865C21.8176 86.2925 22.2462 86.4644 22.6931 86.4644H31.3175C31.7641 86.4644 32.1925 86.2925 32.5084 85.9864C32.8242 85.6803 33.0017 85.2652 33.0017 84.8324V76.61C33.0017 76.3766 32.9542 76.1454 32.862 75.9298C32.7697 75.7142 32.6345 75.5183 32.4641 75.3533C32.2936 75.1883 32.0913 75.0575 31.8687 74.9684C31.646 74.8792 31.4074 74.8335 31.1665 74.8337H22.6931Z" fill="#6D28D9"/>
<path d="M63.336 35.9287H51.4377C51.0375 35.9287 50.6536 35.7747 50.3706 35.5004C50.0876 35.2262 49.9286 34.8542 49.9286 34.4664C49.9286 34.0785 50.0876 33.7066 50.3706 33.4323C50.6536 33.1581 51.0375 33.004 51.4377 33.004H63.336C63.7362 33.004 64.1201 33.1581 64.4031 33.4323C64.6862 33.7066 64.8452 34.0785 64.8452 34.4664C64.8452 34.8542 64.6862 35.2262 64.4031 35.5004C64.1201 35.7747 63.7362 35.9287 63.336 35.9287ZM45.3447 35.9287H39.2276C38.8273 35.9287 38.4434 35.7747 38.1604 35.5004C37.8774 35.2262 37.7184 34.8542 37.7184 34.4664C37.7184 34.0785 37.8774 33.7066 38.1604 33.4323C38.4434 33.1581 38.8273 33.004 39.2276 33.004H45.3447C45.745 33.004 46.1288 33.1581 46.4119 33.4323C46.6949 33.7066 46.8539 34.0785 46.8539 34.4664C46.8539 34.8542 46.6949 35.2262 46.4119 35.5004C46.1288 35.7747 45.745 35.9287 45.3447 35.9287ZM63.336 58.572H57.4402C57.0399 58.572 56.6561 58.4179 56.373 58.1437C56.09 57.8694 55.931 57.4975 55.931 57.1096C55.931 56.7218 56.09 56.3498 56.373 56.0756C56.6561 55.8013 57.0399 55.6473 57.4402 55.6473H63.336C63.7362 55.6473 64.1201 55.8013 64.4031 56.0756C64.6862 56.3498 64.8452 56.7218 64.8452 57.1096C64.8452 57.4975 64.6862 57.8694 64.4031 58.1437C64.1201 58.4179 63.7362 58.572 63.336 58.572ZM51.2969 58.572H39.2235C38.8233 58.572 38.4394 58.4179 38.1564 58.1437C37.8734 57.8694 37.7144 57.4975 37.7144 57.1096C37.7144 56.7218 37.8734 56.3498 38.1564 56.0756C38.4394 55.8013 38.8233 55.6473 39.2235 55.6473H51.2969C51.6971 55.6473 52.081 55.8013 52.364 56.0756C52.647 56.3498 52.806 56.7218 52.806 57.1096C52.806 57.4975 52.647 57.8694 52.364 58.1437C52.081 58.4179 51.6971 58.572 51.2969 58.572ZM28.0396 37.0791H27.9813C27.7815 37.0713 27.5853 37.0252 27.404 36.9436C27.2227 36.8619 27.0598 36.7463 26.9248 36.6034L25.0555 34.6145C24.922 34.4728 24.8187 34.307 24.7514 34.1266C24.6841 33.9462 24.6541 33.7547 24.6632 33.563C24.6722 33.3714 24.7202 33.1833 24.8042 33.0096C24.8883 32.8359 25.0068 32.68 25.1531 32.5507C25.2993 32.4214 25.4705 32.3212 25.6567 32.256C25.8428 32.1908 26.0405 32.1617 26.2383 32.1705C26.436 32.1793 26.6301 32.2257 26.8094 32.3072C26.9886 32.3886 27.1496 32.5035 27.283 32.6452L28.1241 33.5363L36.0201 26.3629C36.3117 26.0979 36.7001 25.956 37.0997 25.9684C37.4994 25.9808 37.8775 26.1466 38.151 26.4292C38.4245 26.7118 38.571 27.0881 38.5582 27.4754C38.5453 27.8626 38.3743 28.229 38.0826 28.4941L29.0719 36.6833C28.7925 36.938 28.4232 37.0797 28.0396 37.0791ZM28.0396 60.3093H27.9813C27.7815 60.3014 27.5853 60.2554 27.404 60.1737C27.2227 60.0921 27.0598 59.9764 26.9248 59.8335L25.0555 57.8447C24.922 57.703 24.8187 57.5372 24.7514 57.3568C24.6841 57.1763 24.6541 56.9848 24.6632 56.7932C24.6722 56.6015 24.7202 56.4135 24.8042 56.2398C24.8883 56.0661 25.0068 55.9101 25.1531 55.7808C25.2993 55.6515 25.4705 55.5514 25.6567 55.4862C25.8428 55.4209 26.0405 55.3919 26.2383 55.4007C26.436 55.4095 26.6301 55.4559 26.8094 55.5373C26.9886 55.6188 27.1496 55.7337 27.283 55.8754L28.1241 56.7665L36.0201 49.5931C36.3117 49.328 36.7001 49.1861 37.0997 49.1986C37.4994 49.211 37.8775 49.3768 38.151 49.6594C38.4245 49.942 38.571 50.3183 38.5582 50.7055C38.5453 51.0928 38.3743 51.4592 38.0826 51.7242L29.0719 59.9135C28.7926 60.1684 28.4233 60.31 28.0396 60.3093ZM28.0396 83.2021H27.9813C27.7815 83.1943 27.5853 83.1482 27.404 83.0666C27.2227 82.9849 27.0598 82.8693 26.9248 82.7264L25.0495 80.7376C24.9081 80.5972 24.7974 80.4307 24.7239 80.2481C24.6503 80.0654 24.6154 79.8703 24.6212 79.6742C24.6271 79.4782 24.6735 79.2854 24.7578 79.1071C24.8422 78.9289 24.9626 78.7689 25.112 78.6366C25.2615 78.5044 25.4368 78.4026 25.6276 78.3374C25.8185 78.2722 26.0209 78.2448 26.2229 78.2569C26.4248 78.269 26.6223 78.3203 26.8033 78.4078C26.9844 78.4953 27.1455 78.6172 27.277 78.7663L28.1181 79.6574L36.014 72.482C36.3086 72.2321 36.6918 72.1029 37.0828 72.1216C37.4738 72.1403 37.842 72.3055 38.1096 72.5823C38.3773 72.8591 38.5235 73.2259 38.5173 73.6052C38.5111 73.9845 38.3531 74.3466 38.0766 74.6151L29.0658 82.8044C28.7884 83.0586 28.4214 83.2009 28.0396 83.2021ZM63.7304 82.0615H51.8341C51.4339 82.0615 51.05 81.9074 50.767 81.6332C50.484 81.3589 50.325 80.987 50.325 80.5991C50.325 80.2113 50.484 79.8393 50.767 79.5651C51.05 79.2908 51.4339 79.1368 51.8341 79.1368H63.7304C64.1306 79.1368 64.5145 79.2908 64.7975 79.5651C65.0805 79.8393 65.2395 80.2113 65.2395 80.5991C65.2395 80.987 65.0805 81.3589 64.7975 81.6332C64.5145 81.9074 64.1306 82.0615 63.7304 82.0615ZM45.7331 82.0615H39.622C39.2217 82.0615 38.8378 81.9074 38.5548 81.6332C38.2718 81.3589 38.1128 80.987 38.1128 80.5991C38.1128 80.2113 38.2718 79.8393 38.5548 79.5651C38.8378 79.2908 39.2217 79.1368 39.622 79.1368H45.7331C46.1333 79.1368 46.5172 79.2908 46.8002 79.5651C47.0832 79.8393 47.2422 80.2113 47.2422 80.5991C47.2422 80.987 47.0832 81.3589 46.8002 81.6332C46.5172 81.9074 46.1333 82.0615 45.7331 82.0615Z" fill="#EDE9FE"/>
<path d="M99.7333 49.872C99.7333 50.2599 99.5743 50.6318 99.2912 50.9061C99.0082 51.1803 98.6244 51.3344 98.2241 51.3344C97.8238 51.3344 97.44 51.1803 97.157 50.9061C96.8739 50.6318 96.7149 50.2599 96.7149 49.872V36.4963C96.6143 36.1648 96.2119 35.3849 94.4411 35.3849H92.9239V32.7136C92.9272 32.6287 92.9205 32.5436 92.9038 32.4601H94.4431C95.6448 32.3214 96.8561 32.6282 97.834 33.3189C98.8118 34.0097 99.4839 35.0333 99.7152 36.1843L99.7333 49.872ZM93.0326 85.3198L88.4648 100.333L83.877 85.3198H93.0326Z" fill="#6D28D9"/>
<path d="M83.877 49.8719H93.0326V85.3197H83.877V49.8719Z" fill="#C4B5FD"/>
<path d="M93.0345 32.7134V49.8719H83.8789V32.7134C83.8789 31.537 84.3612 30.4087 85.2197 29.5768C86.0782 28.7449 87.2426 28.2776 88.4567 28.2776C89.6708 28.2776 90.8352 28.7449 91.6937 29.5768C92.5522 30.4087 93.0345 31.537 93.0345 32.7134Z" fill="#6D28D9"/>
<path d="M93.0326 85.3198L88.4648 100.333V85.3198H93.0326Z" fill="#7C3AED"/>
<path d="M88.4648 49.8719H93.0326V85.3197H88.4648V49.8719Z" fill="#A78BFA"/>
<path d="M93.0345 32.7137V49.8721H88.4668V28.2876C89.6319 28.287 90.7529 28.7193 91.599 29.4955C92.445 30.2718 92.9516 31.3329 93.0144 32.4602C93.0311 32.5437 93.0379 32.6287 93.0345 32.7137Z" fill="#7C3AED"/>
</svg>
