<svg width="109" height="110" viewBox="0 0 109 110" fill="none" xmlns="http://www.w3.org/2000/svg">
<path d="M70.1713 88.6798V95.8H38.6245V88.6798H46.1505L47.4763 76.6418L47.7883 73.7747V73.7178H60.988L61.0075 73.7747L61.3195 76.6418L62.6453 88.6798H70.1713Z" fill="#8B5CF6"/>
<path d="M61.3197 76.6418H47.4766L47.7885 73.7747V73.7178H60.9882L61.0077 73.7747L61.3197 76.6418Z" fill="#7C3AED"/>
<path d="M62.6375 88.6741H38.6206V95.7924H70.1751V88.6741H62.6375Z" fill="#A78BFA"/>
<path d="M96.5126 14.2H12.284C11.43 14.202 10.6118 14.5337 10.0087 15.1225C9.40558 15.7112 9.06689 16.5089 9.06689 17.3405V70.6303C9.06689 71.4619 9.40558 72.2596 10.0087 72.8483C10.6118 73.4371 11.43 73.7688 12.284 73.7709H96.3176C96.7663 73.7711 97.2106 73.6852 97.6252 73.5181C98.0397 73.351 98.4164 73.106 98.7336 72.7971C99.0509 72.4881 99.3025 72.1213 99.4741 71.7176C99.6456 71.3139 99.7338 70.8812 99.7336 70.4443V17.3405C99.7336 16.5082 99.3943 15.71 98.7904 15.1211C98.1865 14.5323 97.3672 14.201 96.5126 14.2Z" fill="#C4B5FD"/>
<path d="M15.0522 19.642H93.7436V62.9901H15.0522V19.642Z" fill="#4C1D95"/>
<path d="M93.7438 19.642V59.0407H32.717C29.6252 59.0392 26.6605 57.8424 24.4743 55.7134C22.2881 53.5844 21.0592 50.6972 21.0576 47.6863V19.642H93.7438Z" fill="#6D28D9"/>
<path d="M81.8503 50.1355C81.8751 50.0748 81.9079 50.0174 81.9477 49.9647V49.9457C82.4967 49.0338 82.9413 48.066 83.2736 47.0596C84.178 44.2414 84.1606 41.219 83.2236 38.4109C82.2867 35.6028 80.4765 33.1477 78.0438 31.3854C75.611 29.6232 72.6759 28.641 69.6447 28.5746C66.6135 28.5083 63.6361 29.3612 61.1245 31.0153C59.3899 32.1488 57.9322 33.6397 56.8546 35.3824C55.8567 36.9793 55.1917 38.752 54.8976 40.5993C54.6035 42.4465 54.6861 44.3321 55.1405 46.1483C55.595 47.9645 56.4125 49.6757 57.5463 51.1841C58.6801 52.6925 60.108 53.9686 61.7485 54.9393C64.081 56.2675 66.7286 56.9808 69.4304 57.009C70.9582 57.0201 72.4762 56.7695 73.9148 56.2685C74.9382 55.9047 75.9293 55.4602 76.8784 54.9393L76.8979 54.9583L81.0898 59.0406H90.975C86.7246 54.9204 81.8503 50.1545 81.8503 50.1355Z" fill="#4C1D95"/>
<path d="M98.0333 68.2912C97.884 68.8837 97.5664 69.4232 97.1169 69.8481C96.46 70.4801 95.5738 70.8345 94.6505 70.8345C93.7271 70.8345 92.841 70.4801 92.1841 69.8481L85.1455 62.9937H93.7439V61.7595L97.1169 65.0443C97.5523 65.4573 97.8667 65.9759 98.0278 66.5466C98.1889 67.1173 98.1908 67.7195 98.0333 68.2912Z" fill="#DDD6FE"/>
<path d="M93.7436 61.7557V62.9899H85.1453L81.0898 59.0405H90.975C91.9499 59.9899 92.9053 60.9203 93.7436 61.7557Z" fill="#5B21B6"/>
<path d="M98.7057 63.5899L83.4237 48.7077C85.2682 45.7349 85.9313 42.2074 85.2879 38.7911C84.6445 35.3749 82.739 32.3062 79.9312 30.1644C77.1235 28.0226 73.6077 26.956 70.0476 27.1659C66.4875 27.3758 63.1296 28.8476 60.6076 31.3036C58.0857 33.7596 56.5742 37.0298 56.3587 40.4967C56.1432 43.9636 57.2385 47.3874 59.4378 50.1218C61.6371 52.8561 64.7882 54.7117 68.2963 55.3383C71.8043 55.9649 75.4266 55.3191 78.4791 53.5229L93.7612 68.407C94.4171 69.0452 95.3063 69.4037 96.2335 69.4037C97.1606 69.4037 98.0498 69.0452 98.7057 68.407C99.3616 67.7682 99.7301 66.9019 99.7301 65.9985C99.7301 65.0951 99.3616 64.2288 98.7057 63.5899Z" fill="#A78BFA"/>
<path d="M70.9165 55.5679C78.9861 55.5679 85.5278 49.1973 85.5278 41.3387C85.5278 33.4802 78.9861 27.1096 70.9165 27.1096C62.8469 27.1096 56.3052 33.4802 56.3052 41.3387C56.3052 49.1973 62.8469 55.5679 70.9165 55.5679Z" fill="#8B5CF6"/>
<path d="M98.7057 63.5899L83.412 48.6924C82.7998 49.6721 82.0715 50.5783 81.2419 51.3924C80.8409 51.7817 80.4171 52.1482 79.9727 52.4899L94.5625 66.6943C95.2181 67.3323 96.107 67.6908 97.0338 67.6908C97.9607 67.6908 98.8496 67.3323 99.5051 66.6943L99.6884 66.5044C99.7707 65.9776 99.7246 65.4393 99.5539 64.933C99.3832 64.4267 99.0927 63.9666 98.7057 63.5899Z" fill="#C4B5FD"/>
<path d="M70.916 27.1096C67.4343 27.1062 64.0666 28.3188 61.4247 30.5273C59.5753 33.4097 58.8464 36.8416 59.37 40.2019C59.8935 43.5623 61.6349 46.6291 64.279 48.8476C66.9232 51.066 70.2954 52.2894 73.7855 52.2965C77.2756 52.3036 80.653 51.0939 83.3066 48.8862C84.6906 46.7322 85.457 44.2566 85.5263 41.7166C85.5956 39.1766 84.9652 36.6648 83.7006 34.4423C82.436 32.2198 80.5834 30.3676 78.3352 29.0781C76.087 27.7886 73.5252 27.1089 70.916 27.1096Z" fill="#C4B5FD"/>
</svg>
