<svg width="109" height="110" viewBox="0 0 109 110" fill="none" xmlns="http://www.w3.org/2000/svg">
<g clip-path="url(#clip0_40000040_496)">
<path d="M107.672 60.0086L98.3235 43.8376C98.0924 43.4388 97.7549 43.1069 97.3459 42.8764C96.9369 42.6459 96.4715 42.5253 95.9978 42.5271H81.5375V29.1771C81.5363 28.8122 81.3855 28.4626 81.1181 28.2046C80.8506 27.9466 80.4882 27.8011 80.1099 27.7999H22.3378C21.9595 27.8011 21.5971 27.9466 21.3296 28.2046C21.0622 28.4626 20.9114 28.8122 20.9102 29.1771V72.7299C20.9102 73.2601 21.1285 73.7686 21.5171 74.1435C21.9058 74.5184 22.4329 74.729 22.9825 74.729H107.557C107.72 74.7296 107.882 74.699 108.033 74.6389C108.185 74.5788 108.322 74.4905 108.437 74.379C108.553 74.2675 108.645 74.135 108.707 73.9893C108.769 73.8435 108.801 73.6872 108.8 73.5295V64.229C108.801 62.7527 108.413 61.3005 107.672 60.0086Z" fill="#8B5CF6"/>
<path d="M108.801 64.2287V70.4483H90.7576C89.6437 70.4483 88.5754 70.0214 87.7877 69.2616C87.0001 68.5018 86.5576 67.4712 86.5576 66.3967V42.5268H95.9983C96.4719 42.525 96.9374 42.6456 97.3463 42.8761C97.7553 43.1066 98.0928 43.4385 98.3239 43.8373L107.672 60.0083C108.413 61.3002 108.801 62.7524 108.801 64.2287Z" fill="#A78BFA"/>
<path d="M102.836 74.7356C102.844 76.2643 102.353 77.7565 101.432 79.0005C100.492 80.3046 99.1453 81.2851 97.5876 81.799C96.0298 82.3128 94.3427 82.3332 92.7721 81.8571C91.2015 81.381 89.8297 80.4333 88.8566 79.1523C87.8836 77.8712 87.3602 76.3238 87.3628 74.7356C87.3628 72.7562 88.1779 70.8578 89.6288 69.4581C91.0798 68.0584 93.0476 67.2721 95.0995 67.2721C97.1514 67.2721 99.1193 68.0584 100.57 69.4581C102.021 70.8578 102.836 72.7562 102.836 74.7356Z" fill="#A5B4FC"/>
<path d="M81.5373 29.1771V70.6707H34.4285C33.3154 70.6707 32.2133 70.4592 31.1849 70.0483C30.1566 69.6374 29.2222 69.0351 28.4352 68.2759C27.6481 67.5166 27.0238 66.6152 26.5978 65.6232C26.1719 64.6312 25.9526 63.5679 25.9526 62.4942V27.7999H80.1097C80.488 27.8011 80.8504 27.9466 81.1178 28.2046C81.3853 28.4626 81.5361 28.8122 81.5373 29.1771Z" fill="#A78BFA"/>
<path d="M102.836 74.7358C102.844 76.2644 102.353 77.7567 101.432 79.0006C100.753 79.199 100.046 79.2963 99.3364 79.2894C97.2847 79.2888 95.3172 78.5023 93.8664 77.1027C92.4156 75.7032 91.6003 73.8051 91.5997 71.8259C91.5927 70.2802 92.0924 68.7719 93.0273 67.5166C94.1787 67.212 95.3875 67.1679 96.5594 67.3877C97.7314 67.6075 98.835 68.0853 99.7842 68.7839C100.733 69.4825 101.503 70.383 102.032 71.4154C102.561 72.4477 102.837 73.584 102.836 74.7358Z" fill="#C4B5FD"/>
<path d="M52.9393 74.7358C52.9381 76.1256 52.5346 77.4875 51.7744 78.6681C51.0142 79.8486 49.9274 80.801 48.6364 81.4178C47.3454 82.0346 45.9014 82.2915 44.4673 82.1594C43.0331 82.0273 41.6657 81.5116 40.519 80.6702C39.3723 79.8289 38.4919 78.6954 37.9769 77.3974C37.462 76.0994 37.3329 74.6885 37.6044 73.3236C37.8758 71.9586 38.5369 70.6939 39.5132 69.6719C40.4895 68.6499 41.7422 67.9111 43.1302 67.5389C43.8015 67.3405 44.5005 67.2431 45.2025 67.2501C46.2202 67.251 47.2278 67.4454 48.1675 67.8221C49.1073 68.1989 49.9608 68.7507 50.6794 69.4459C51.3979 70.1412 51.9673 70.9662 52.3551 71.8739C52.7429 72.7816 52.9414 73.7541 52.9393 74.7358Z" fill="#A5B4FC"/>
<path d="M52.9393 74.7358C52.9363 76.2629 52.4459 77.752 51.5347 79.0007C50.8555 79.199 50.149 79.2964 49.4394 79.2895C47.3877 79.2889 45.4201 78.5024 43.9694 77.1028C42.5186 75.7033 41.7033 73.8052 41.7027 71.826C41.6991 70.2876 42.1987 68.7874 43.1303 67.5389C43.8016 67.3405 44.5006 67.2431 45.2026 67.2501C46.2203 67.251 47.2278 67.4454 48.1676 67.8221C49.1073 68.1989 49.9609 68.7507 50.6794 69.4459C51.398 70.1412 51.9674 70.9662 52.3552 71.8739C52.7429 72.7816 52.9414 73.7541 52.9393 74.7358Z" fill="#C4B5FD"/>
<path d="M27.7417 63.5805H5.82096C5.36295 63.5805 4.92369 63.405 4.59983 63.0926C4.27596 62.7802 4.09402 62.3564 4.09402 61.9146C4.09402 61.4727 4.27596 61.049 4.59983 60.7366C4.92369 60.4241 5.36295 60.2486 5.82096 60.2486H27.7417C28.1997 60.2486 28.639 60.4241 28.9628 60.7366C29.2867 61.049 29.4686 61.4727 29.4686 61.9146C29.4686 62.3564 29.2867 62.7802 28.9628 63.0926C28.639 63.405 28.1997 63.5805 27.7417 63.5805ZM45.2069 56.0037H14.6215C14.1635 56.0037 13.7242 55.8282 13.4004 55.5158C13.0765 55.2034 12.8945 54.7796 12.8945 54.3378C12.8945 53.8959 13.0765 53.4722 13.4004 53.1598C13.7242 52.8473 14.1635 52.6718 14.6215 52.6718H45.2069C45.6649 52.6718 46.1041 52.8473 46.428 53.1598C46.7519 53.4722 46.9338 53.8959 46.9338 54.3378C46.9338 54.7796 46.7519 55.2034 46.428 55.5158C46.1041 55.8282 45.6649 56.0037 45.2069 56.0037ZM13.6705 47.2074H1.72695C1.26893 47.2074 0.829677 47.0319 0.505811 46.7195C0.181946 46.4071 0 45.9833 0 45.5415C0 45.0996 0.181946 44.6759 0.505811 44.3635C0.829677 44.051 1.26893 43.8755 1.72695 43.8755H13.6705C14.1285 43.8755 14.5678 44.051 14.8917 44.3635C15.2155 44.6759 15.3975 45.0996 15.3975 45.5415C15.3975 45.9833 15.2155 46.4071 14.8917 46.7195C14.5678 47.0319 14.1285 47.2074 13.6705 47.2074ZM32.8212 38.0047H11.7386C11.2806 38.0047 10.8414 37.8291 10.5175 37.5167C10.1936 37.2043 10.0117 36.7805 10.0117 36.3387C10.0117 35.8969 10.1936 35.4731 10.5175 35.1607C10.8414 34.8483 11.2806 34.6727 11.7386 34.6727H32.8212C33.2792 34.6727 33.7185 34.8483 34.0423 35.1607C34.3662 35.4731 34.5482 35.8969 34.5482 36.3387C34.5482 36.7805 34.3662 37.2043 34.0423 37.5167C33.7185 37.8291 33.2792 38.0047 32.8212 38.0047Z" fill="#A5B4FC"/>
</g>
<defs>
<clipPath id="clip0_40000040_496">
<rect width="108.8" height="108.8" fill="white" transform="translate(0 0.599976)"/>
</clipPath>
</defs>
</svg>
