<svg width="17" height="16" viewBox="0 0 17 16" fill="none" xmlns="http://www.w3.org/2000/svg">
<path d="M10.0735 9.48683C9.62784 9.84614 9.07263 10.0421 8.50017 10.0421C7.9277 10.0421 7.37249 9.84614 6.92683 9.48683C6.79069 9.37367 6.61517 9.31923 6.43888 9.33548C6.2626 9.35174 6.09999 9.43735 5.98683 9.5735C5.87367 9.70964 5.81923 9.88516 5.83549 10.0614C5.85174 10.2377 5.93735 10.4003 6.0735 10.5135C6.75439 11.0819 7.61321 11.3933 8.50017 11.3933C9.38713 11.3933 10.2459 11.0819 10.9268 10.5135C11.063 10.4003 11.1486 10.2377 11.1648 10.0614C11.1811 9.88516 11.1267 9.70964 11.0135 9.5735C10.9575 9.50608 10.8887 9.45037 10.8111 9.40953C10.7336 9.36869 10.6487 9.34353 10.5614 9.33548C10.3852 9.31923 10.2096 9.37367 10.0735 9.48683ZM6.64017 7.02683C6.76507 7.151 6.93404 7.22069 7.11017 7.22069C7.28629 7.22069 7.45526 7.151 7.58017 7.02683C7.70433 6.90192 7.77403 6.73295 7.77403 6.55683C7.77403 6.38071 7.70433 6.21174 7.58017 6.08683C7.19865 5.72482 6.69276 5.52302 6.16683 5.52302C5.6409 5.52302 5.13502 5.72482 4.7535 6.08683C4.68371 6.14659 4.62703 6.22014 4.58702 6.30285C4.547 6.38556 4.52451 6.47565 4.52097 6.56746C4.51742 6.65927 4.53289 6.75083 4.56641 6.83638C4.59992 6.92193 4.65076 6.99963 4.71573 7.0646C4.7807 7.12957 4.8584 7.18041 4.94395 7.21392C5.0295 7.24744 5.12106 7.26291 5.21287 7.25936C5.30468 7.25582 5.39477 7.23333 5.47748 7.19331C5.56019 7.1533 5.63373 7.09662 5.6935 7.02683C5.75547 6.96434 5.82921 6.91475 5.91045 6.8809C5.99169 6.84706 6.07882 6.82963 6.16683 6.82963C6.25484 6.82963 6.34198 6.84706 6.42322 6.8809C6.50446 6.91475 6.57819 6.96434 6.64017 7.02683ZM12.2468 6.08683C11.8653 5.72482 11.3594 5.52302 10.8335 5.52302C10.3076 5.52302 9.80169 5.72482 9.42017 6.08683C9.31095 6.21436 9.25388 6.37841 9.26036 6.5462C9.26684 6.71398 9.33639 6.87314 9.45512 6.99187C9.57385 7.1106 9.73301 7.18016 9.9008 7.18664C10.0686 7.19312 10.2326 7.13605 10.3602 7.02683C10.4221 6.96434 10.4959 6.91475 10.5771 6.8809C10.6584 6.84706 10.7455 6.82963 10.8335 6.82963C10.9215 6.82963 11.0086 6.84706 11.0899 6.8809C11.1711 6.91475 11.2449 6.96434 11.3068 7.02683C11.4317 7.151 11.6007 7.22069 11.7768 7.22069C11.953 7.22069 12.1219 7.151 12.2468 7.02683C12.371 6.90192 12.4407 6.73295 12.4407 6.55683C12.4407 6.38071 12.371 6.21174 12.2468 6.08683ZM8.50017 1.3335C7.18162 1.3335 5.89269 1.72449 4.79636 2.45703C3.70004 3.18957 2.84555 4.23077 2.34097 5.44894C1.83638 6.66711 1.70436 8.00756 1.9616 9.30077C2.21883 10.594 2.85377 11.7819 3.78612 12.7142C4.71847 13.6466 5.90636 14.2815 7.19956 14.5387C8.49277 14.796 9.83322 14.6639 11.0514 14.1594C12.2696 13.6548 13.3108 12.8003 14.0433 11.704C14.7758 10.6076 15.1668 9.31871 15.1668 8.00016C15.1668 7.12468 14.9944 6.25778 14.6594 5.44894C14.3243 4.6401 13.8333 3.90517 13.2142 3.28612C12.5952 2.66706 11.8602 2.176 11.0514 1.84097C10.2426 1.50593 9.37565 1.3335 8.50017 1.3335ZM8.50017 13.3335C7.44533 13.3335 6.41419 13.0207 5.53712 12.4347C4.66006 11.8486 3.97648 11.0157 3.57281 10.0411C3.16914 9.0666 3.06352 7.99425 3.26931 6.95968C3.4751 5.92512 3.98305 4.97481 4.72893 4.22893C5.47481 3.48305 6.42512 2.9751 7.45968 2.76931C8.49425 2.56352 9.56661 2.66914 10.5411 3.07281C11.5157 3.47647 12.3486 4.16006 12.9347 5.03712C13.5207 5.91418 13.8335 6.94533 13.8335 8.00016C13.8335 9.41465 13.2716 10.7712 12.2714 11.7714C11.2712 12.7716 9.91465 13.3335 8.50017 13.3335Z" fill="#F9FAFB"/>
</svg>
